# xmcd
#
# Track frame offsets: 
#        150
#        674
#        15826
#        33548
#        50597
#        67397
#        90116
#        109317
#        127404
#        147564
#        163978
#        181479
#        199127
#        214753
#        233848
#        250986
#        263973
#        280371
#        295769
#        310743
#
# Disc length: 4360 seconds
#
# Revision: 0
# Processed by: cddbd v1.5.2PL0 Copyright (c) Steve Scherf et al.
# Submitted via: ExactAudioCopy v0.99pb4
#
DISCID=34110614
DTITLE=Various Artist - prevue promo 1052A-2
DYEAR=2000
DGENRE=pop
TTITLE0=blank - data
TTITLE1=Foo Fighters - Next Year
TTITLE2=Plus One - Last Flight Out 
TTITLE3=Leiah Nash (of Sixpence None The Richer) - Need To Be Next To 
TTITLE3=You 
TTITLE4=Brian McKnight - Win 
TTITLE5=Gerald Levert  - Dream With No Love 
TTITLE6=Dave Hollister - One Woman Man(lyric)
TTITLE7=Donell Jones - This Luv
TTITLE8=Shola Ama Feat. WC from Westsideconnection - Imagine 
TTITLE9=Lucy Pearl - Don't Mess With My Man 
TTITLE10=Tionne "T-Boz" Watkins (ofTLC) My Getaway
TTITLE11=Spice Girls - Holler
TTITLE12=Public Announcement - Mamacita
TTITLE13=Nelly - E.I.
TTITLE14=Teri Tims - Roll Dem Bones
TTITLE15=Russ Landau - Ancient Voices (Extended)
TTITLE16=Don Henley - For My Wedding
TTITLE17=Len - Kids In America
TTITLE18=Nonpoint - What A Day (lyrics - Clean Version) 
TTITLE19=Motley crue - Treat Me Like The Dog I Am(lyrics) 
EXTD=
EXTT0=
EXTT1=
EXTT2=
EXTT3=
EXTT4=
EXTT5=
EXTT6=
EXTT7=
EXTT8=
EXTT9=
EXTT10=
EXTT11=
EXTT12=
EXTT13=
EXTT14=
EXTT15=
EXTT16=
EXTT17=
EXTT18=
EXTT19=
PLAYORDER=
